# xmcd
#
# Track frame offsets:
# 183
# 15023
# 30533
# 44695
# 58028
# 74368
# 94488
# 109308
# 121853
# 133918
#
# Disc length: 1938 seconds
#
#
# Revision: 0
# Processed by: cddbd v1.5.2PL0 Copyright (c) Steve Scherf et al.
# Submitted via: FreeRIP 2.00 
#
DISCID=8a07900a
DTITLE=Teddy Edelmann - Det er bare mig
DYEAR=1900
DGENRE=Country
TTITLE0=Stoney
TTITLE1=Byens hjerter banker
TTITLE2=Er du egentlig til noget
TTITLE3=Armstrong
TTITLE4=Ensom vandrer
TTITLE5=Mellem folk der kan forstå
TTITLE6=Sån`t er livet
TTITLE7=Vi lever livet by night
TTITLE8=Intet er født til at leve evigt
TTITLE9=Diesel Bryllup
EXTD=
EXTT0=
EXTT1=
EXTT2=
EXTT3=
EXTT4=
EXTT5=
EXTT6=
EXTT7=
EXTT8=
EXTT9=
PLAYORDER=
